<?xml version="1.0" encoding="UTF-8"?>
<svg version="1.1" xmlns="http://www.w3.org/2000/svg" width="1126" height="1126">
<path d="M0 0 C-1.40118413 7.56006124 -3.95714946 14.24165449 -6.9375 21.3125 C-7.9326143 23.71156631 -8.926051 26.11132903 -9.91796875 28.51171875 C-10.17228668 29.12551392 -10.42660461 29.73930908 -10.68862915 30.3717041 C-13.46474838 37.08782137 -16.10955977 43.85455785 -18.75 50.625 C-21.70652649 58.19455756 -24.68545509 65.74915102 -27.8125 73.25 C-30.1490796 78.86008445 -32.34333426 84.50631453 -34.45043945 90.20776367 C-40.94383673 107.69128322 -47.95040371 124.99585072 -54.92431641 142.29248047 C-58.54713022 151.28150996 -62.13467648 160.27319415 -65.50219727 169.36132812 C-70.99073521 184.09400537 -76.76838001 198.73651153 -82.8125 213.25 C-85.1512493 218.86597331 -87.34750229 224.51810444 -89.45703125 230.2253418 C-93.35561986 240.72163852 -97.52873207 251.11394412 -101.63476562 261.53027344 C-103.25460642 265.64707912 -104.86363487 269.76803444 -106.47119141 273.88964844 C-109.91398385 282.71613645 -113.40484542 291.52159073 -116.9375 300.3125 C-120.36614967 308.84731046 -123.71453755 317.40908125 -127 326 C-130.64023896 335.51729401 -134.3710191 344.99353475 -138.1730957 354.44726562 C-141.38832208 362.4479306 -144.54554006 370.4703078 -147.6875 378.5 C-150.92642897 386.77551412 -154.21616774 395.02280523 -157.63598633 403.22509766 C-161.01497452 411.37314447 -164.21026858 419.63080574 -167 428 C-154.46 428 -141.92 428 -129 428 C-128.01 425.03 -127.02 422.06 -126 419 C-124.94275232 416.14799779 -123.87300458 413.30572088 -122.77734375 410.46875 C-122.47599014 409.68414902 -122.17463654 408.89954803 -121.864151 408.09117126 C-120.89092078 405.55988047 -119.9144467 403.02985853 -118.9375 400.5 C-118.60097412 399.62675079 -118.26444824 398.75350159 -117.91772461 397.85379028 C-113.24531021 385.73087025 -108.49905983 373.64110214 -103.64453125 361.58984375 C-100.28539358 353.24245873 -96.98853639 344.87048513 -93.6875 336.5 C-93.20730408 335.28257614 -93.20730408 335.28257614 -92.71740723 334.04055786 C-90.78710096 329.14637304 -88.85775773 324.25180919 -86.92889404 319.35705566 C-86.031051 317.07879147 -85.13300005 314.80060936 -84.23486328 312.52246094 C-78.6482255 298.35158412 -73.06792787 284.1782403 -67.5 270 C-64.8523367 263.25863817 -62.20415092 256.51748195 -59.55345154 249.77731323 C-58.98871744 248.34128352 -58.42415268 246.9051872 -57.85975647 245.46902466 C-56.45796436 241.9038077 -55.05178571 238.34044146 -53.63598633 234.78076172 C-51.23570732 228.73828782 -48.86403686 222.69543818 -46.6796875 216.5703125 C-46.33639404 215.63445312 -45.99310059 214.69859375 -45.6394043 213.734375 C-45.02990502 212.06360601 -44.44314145 210.3842579 -43.88598633 208.6953125 C-43.0889365 206.54747295 -42.32187379 204.86920632 -41 203 C-35.80841135 200.74740215 -30.46375241 199.18480808 -25.01171875 197.6953125 C-24.26904251 197.48945526 -23.52636627 197.28359802 -22.76118469 197.07150269 C-21.19436822 196.63792714 -19.62707358 196.20607616 -18.05932617 195.77587891 C-15.73057389 195.13682038 -13.40325486 194.49276369 -11.07617188 193.84765625 C-1.62329339 191.23394791 7.85134275 188.70969363 17.33862305 186.22412109 C24.81731319 184.26358538 32.28335895 182.25583701 39.75 180.25 C40.58373138 180.02611603 41.41746277 179.80223206 42.27645874 179.57156372 C48.06283495 178.01754973 53.84874348 176.4618009 59.63446045 174.90533447 C61.97056904 174.27691825 64.30671246 173.64863151 66.6428833 173.02044678 C76.03344443 170.49535351 85.42340358 167.9680344 94.8125 165.4375 C95.49692547 165.25303818 96.18135094 165.06857635 96.88651657 164.87852478 C113.91765622 160.28762634 130.93904431 155.66574528 147.92459106 150.90844727 C159.05057927 147.7931771 170.20704042 144.80879601 181.38299561 141.87817383 C191.60106663 139.19684648 201.7777453 136.39396985 211.9375 133.5 C223.72017931 130.14457366 235.54820707 127.01916549 247.42428589 124.01193237 C260.68335669 120.6516333 273.86096097 117.03170657 287.01269531 113.27368164 C294.61763799 111.11511252 302.17125705 109.18791755 310 108 C309.42727222 113.6604751 307.90276715 118.40376437 305.7890625 123.66796875 C305.46514526 124.49222351 305.14122803 125.31647827 304.80749512 126.16571045 C303.75369381 128.84247614 302.68940278 131.51493446 301.625 134.1875 C300.89103722 136.0466695 300.15780697 137.90612834 299.42529297 139.76586914 C297.96459484 143.47115362 296.49994546 147.17483138 295.03125 150.87695312 C292.38084278 157.55793069 289.75218064 164.24735958 287.125 170.9375 C286.47180786 172.59761108 286.47180786 172.59761108 285.80541992 174.29125977 C280.30706111 188.27736629 274.93551083 202.31244807 269.57421875 216.3515625 C262.96748967 233.62572261 256.11732353 250.7946384 249.21459961 267.95220947 C246.40376017 274.94189577 243.60467439 281.93016951 241 289 C239.0720413 294.19732781 237.07712338 299.36050303 235 304.5 C233.05824759 309.31027853 231.18271741 314.13713446 229.375 319 C219.56078471 345.3994003 209.19420368 371.62048365 198.6875 397.75 C196.18200501 403.98519544 193.75427734 410.24170757 191.41308594 416.5402832 C185.08978976 433.53569556 178.46122875 450.41505776 171.79846191 467.27960205 C167.46067002 478.26017689 163.17883603 489.26124228 158.92993164 500.27648926 C155.568849 508.98734078 152.15121948 517.67273119 148.65942383 526.33203125 C146.4009997 531.94918325 144.25060639 537.60039247 142.14697266 543.27709961 C140.49829309 547.7130465 138.7732342 552.11246285 137 556.5 C135.03246985 561.37119842 133.13957567 566.2612014 131.3125 571.1875 C128.144082 579.72385476 124.79670475 588.18842413 121.45703125 596.65893555 C117.87230099 605.75868178 114.33349989 614.87542691 110.8125 624 C107.1545078 633.47905966 103.44698727 642.93547055 99.64892578 652.359375 C97.51633737 657.66576332 95.48219446 662.99900303 93.49853516 668.36303711 C90.46276792 676.52379907 87.23246855 684.60913319 84.03686523 692.70825195 C81.55244008 699.01513114 79.09703528 705.32821448 76.75 711.6875 C74.77767406 717.00937949 72.68143222 722.26173499 70.5 727.5 C68.03745711 733.41543456 65.69809896 739.36011931 63.47167969 745.36962891 C59.8394068 755.16270528 56.04962591 764.89594464 52.29248047 774.64160156 C51.07752792 777.79855043 49.86770798 780.95740157 48.66015625 784.1171875 C39.7977253 807.2850003 30.69303937 830.36147734 21.4375 853.375 C19.26949826 858.76906053 17.15471683 864.17736623 15.125 869.625 C14.78190796 870.54273193 14.78190796 870.54273193 14.43188477 871.47900391 C13.22736012 874.70317541 12.02638893 877.92854655 10.83398438 881.15722656 C9.52488787 884.69218443 8.20075461 888.2212598 6.875 891.75 C6.24489014 893.46630615 6.24489014 893.46630615 5.60205078 895.21728516 C5.1945459 896.2954248 4.78704102 897.37356445 4.3671875 898.484375 C4.00737793 899.45084961 3.64756836 900.41732422 3.27685547 901.41308594 C1.267354 905.4843436 -0.66237477 907.49700227 -4.94042969 909.10571289 C-6.08930664 909.3918042 -7.23818359 909.67789551 -8.421875 909.97265625 C-9.06133057 910.1366391 -9.70078613 910.30062195 -10.35961914 910.46957397 C-11.75217718 910.82517154 -13.1463472 911.17450205 -14.54187012 911.51828003 C-17.58646063 912.26865571 -20.62294819 913.04966169 -23.66021729 913.82905579 C-25.27845018 914.24418048 -26.89707089 914.657796 -28.51605225 915.06999207 C-36.79115579 917.18248487 -45.01961669 919.45540234 -53.24786377 921.74246216 C-67.26446556 925.63596265 -81.30316499 929.43616135 -95.375 933.125 C-96.15563812 933.32966888 -96.93627625 933.53433777 -97.74057007 933.74520874 C-101.62571848 934.76332686 -105.51124918 935.77997754 -109.39697266 936.79589844 C-116.95436966 938.77216787 -124.50958457 940.75667134 -132.0625 942.75 C-133.13448135 943.03280319 -133.13448135 943.03280319 -134.2281189 943.32131958 C-143.22408318 945.69764359 -152.18629134 948.16696687 -161.11914062 950.77148438 C-169.21190767 953.1082629 -177.3723022 955.17310778 -185.53414917 957.2522583 C-196.31486554 960.00291823 -207.03867968 962.92871838 -217.75 965.9375 C-230.44148398 969.50180007 -243.1679275 972.87874122 -255.94567871 976.11935425 C-266.99876296 978.92636696 -277.98349584 981.92335152 -288.94818115 985.05673218 C-301.34398962 988.59436473 -313.80647551 991.8388589 -326.3046875 994.99414062 C-327.70058801 995.34739092 -329.09642341 995.70089857 -330.4921875 996.0546875 C-331.15342621 996.22201889 -331.81466492 996.38935028 -332.49594116 996.56175232 C-337.05265608 997.72656198 -341.54992134 999.02586397 -346.02539062 1000.47045898 C-348.7155536 1001.19189364 -351.23605958 1001.21820582 -354 1001 C-353.36097843 997.27722483 -352.31781154 993.9816713 -350.91796875 990.4765625 C-350.48709961 989.39004395 -350.05623047 988.30352539 -349.61230469 987.18408203 C-349.14211914 986.00958496 -348.67193359 984.83508789 -348.1875 983.625 C-347.17387478 981.07367164 -346.16328336 978.52114348 -345.15234375 975.96875 C-344.89103668 975.31021027 -344.62972961 974.65167053 -344.36050415 973.97317505 C-341.86128452 967.66863748 -339.41660497 961.34372929 -336.97851562 955.01528931 C-330.39494919 937.93282079 -323.6675378 920.9078065 -316.93212891 903.88476562 C-314.05722151 896.61790582 -311.18818754 889.34872723 -308.31912231 882.07955933 C-307.37745377 879.69371695 -306.43568018 877.30791606 -305.49389648 874.92211914 C-297.032834 853.48668063 -288.58579845 832.04575331 -280.16308594 810.59521484 C-276.33822323 800.85605792 -272.50328805 791.12088743 -268.66699219 781.38623047 C-264.93910412 771.92633119 -261.21626973 762.46447137 -257.5 753 C-253.54775588 742.93509563 -249.58869888 732.8728971 -245.625 722.8125 C-245.35233307 722.120354 -245.07966614 721.42820801 -244.79873657 720.71508789 C-242.07764909 713.80781218 -239.35588138 706.90080729 -236.63046265 699.99523926 C-230.34623402 684.07189421 -224.09447706 668.1362567 -217.875 652.1875 C-217.18751968 650.42495977 -216.50001982 648.66242717 -215.8125 646.89990234 C-215.4771524 646.04019836 -215.14180481 645.18049438 -214.79629517 644.29473877 C-213.49575343 640.96072842 -212.1951635 637.62673688 -210.89447021 634.29278564 C-210.32153287 632.82418166 -209.74865167 631.35555576 -209.17584229 629.88690186 C-203.48910825 615.30798923 -197.70437272 600.77609381 -191.7722168 586.29516602 C-188.9482558 579.3831562 -186.24575112 572.44904338 -183.66796875 565.44140625 C-180.85341813 557.86433489 -177.83718075 550.36199159 -174.86914062 542.84399414 C-174.41345703 541.68891357 -173.95777344 540.53383301 -173.48828125 539.34375 C-173.08134033 538.31443359 -172.67439941 537.28511719 -172.25512695 536.22460938 C-170.80373176 532.49575747 -169.40497141 528.74659043 -168 525 C-180.54 524.67 -193.08 524.34 -206 524 C-206.33 525.65 -206.66 527.3 -207 529 C-207.82198441 531.2796391 -208.69082175 533.54259717 -209.58984375 535.79296875 C-209.84958984 536.44718307 -210.10933594 537.1013974 -210.37695312 537.7754364 C-210.9355118 539.18115274 -211.49594573 540.58612514 -212.05807495 541.99041748 C-213.5574736 545.73639057 -215.0434692 549.4876824 -216.53125 553.23828125 C-216.9800779 554.36810425 -216.9800779 554.36810425 -217.43797302 555.52075195 C-219.98997608 561.95244534 -222.47344474 568.40912399 -224.9375 574.875 C-229.14491393 585.8887037 -233.51823632 596.83226178 -237.91271973 607.77218628 C-242.15576771 618.33918859 -246.31721303 628.93262123 -250.38500977 639.56860352 C-257.44900149 658.03443006 -264.73152497 676.40616248 -272.22631836 694.70117188 C-275.0586858 701.63391781 -277.76680528 708.5897495 -280.35546875 715.6171875 C-283.95941692 725.31670232 -287.84442002 734.91312776 -291.63916016 744.5390625 C-293.24372044 748.6198387 -294.83401409 752.70602557 -296.42089844 756.79370117 C-297.49912218 759.56024767 -298.59063826 762.32127612 -299.68359375 765.08203125 C-301.172696 768.85101823 -302.61341116 772.63434793 -304.01931763 776.43516541 C-304.71973538 778.31637377 -305.43350176 780.19192342 -306.15234375 782.06616211 C-307.07287098 784.47091201 -307.97111067 786.88434621 -308.84375 789.30688477 C-309.26785156 790.39670654 -309.69195312 791.48652832 -310.12890625 792.609375 C-310.49056885 793.57842773 -310.85223145 794.54748047 -311.22485352 795.54589844 C-313.79529093 799.09947249 -316.94615424 799.84974309 -321 801 C-322.42418999 801.41838135 -322.42418999 801.41838135 -323.87715149 801.84521484 C-327.29323162 802.82519152 -330.71881781 803.76385078 -334.1484375 804.6953125 C-335.4346103 805.04738402 -336.72070063 805.39975697 -338.00671387 805.75241089 C-341.42330809 806.68820972 -344.84120432 807.61916358 -348.2594223 808.54901123 C-351.09438226 809.32085955 -353.92853554 810.0956475 -356.76271248 810.87036514 C-372.43597648 815.15387069 -388.1190149 819.39749161 -403.83712769 823.51385498 C-415.27077199 826.50883143 -426.64719759 829.68492223 -438.01855469 832.90600586 C-447.13400302 835.48664503 -456.27106966 837.95388183 -465.44091797 840.33251953 C-507.01154582 851.17530684 -548.46406201 862.5293851 -589.86303711 874.00927734 C-605.29473228 878.28643184 -620.76314605 882.41341287 -636.25021362 886.48445129 C-640.25951725 887.53902563 -644.26578667 888.60421181 -648.26953125 889.6796875 C-649.16269043 889.91856689 -650.05584961 890.15744629 -650.97607422 890.40356445 C-652.55529164 890.82632857 -654.13381036 891.2517164 -655.71142578 891.68041992 C-658.57260058 892.44291923 -661.02287969 893 -664 893 C-663.44821752 887.87472666 -662.25453305 883.65811102 -660.265625 878.91015625 C-659.71739688 877.5824837 -659.16988454 876.25451538 -658.62304688 874.92626953 C-658.34871826 874.26588684 -658.07438965 873.60550415 -657.79174805 872.92510986 C-656.62576412 870.09005751 -655.52276892 867.23195809 -654.421875 864.37109375 C-653.99261719 863.25798828 -653.56335938 862.14488281 -653.12109375 860.99804688 C-652.66863281 859.82306641 -652.21617187 858.64808594 -651.75 857.4375 C-646.54272805 843.94155723 -641.27687118 830.46886011 -636 817 C-630.85375378 803.86235675 -625.71303305 790.72281465 -620.625 777.5625 C-620.38614075 776.94472687 -620.14728149 776.32695374 -619.90118408 775.69046021 C-618.26616761 771.46080402 -616.63289622 767.23047509 -615 763 C-607.36507048 743.21957622 -599.67053605 723.46323331 -591.9375 703.72094727 C-588.14173859 694.03010807 -584.34925945 684.33803546 -580.5703125 674.640625 C-580.2141687 673.72691132 -579.8580249 672.81319763 -579.49108887 671.87179565 C-577.81880778 667.58113512 -576.14741966 663.29013048 -574.47753906 658.99853516 C-571.33158771 650.92183384 -568.14804367 642.86219776 -564.9140625 634.8203125 C-562.00955351 627.59056598 -559.21447312 620.32883238 -556.50146484 613.02539062 C-553.67013741 605.40907518 -550.73142335 597.83305521 -547.8125 590.25 C-547.48607513 589.40139404 -547.15965027 588.55278809 -546.82333374 587.6784668 C-542.25659697 575.80914225 -537.64738981 563.95781434 -532.98242188 552.12670898 C-529.72738089 543.86746196 -526.51147931 535.59360389 -523.3125 527.3125 C-518.68843599 515.34564198 -514.03995076 503.38847962 -509.375 491.4375 C-509.04358002 490.58837036 -508.71216003 489.73924072 -508.37069702 488.86437988 C-504.36281283 478.59721918 -500.34817441 468.33271586 -496.328125 458.0703125 C-494.76032296 454.06774503 -493.19259626 450.06514807 -491.625 446.0625 C-491.23852295 445.07568237 -490.8520459 444.08886475 -490.45385742 443.07214355 C-485.85314798 431.32225923 -481.27463247 419.56502239 -476.76196289 407.78100586 C-472.90184561 397.71352464 -468.98331941 387.66895696 -465.0625 377.625 C-464.71562134 376.73637268 -464.36874268 375.84774536 -464.01135254 374.93218994 C-459.73107285 363.96962655 -455.43603637 353.01300182 -451.125 342.0625 C-445.18120441 326.96038473 -439.36419207 311.8100994 -433.57421875 296.6484375 C-428.59618124 283.63370021 -423.50589387 270.67017983 -418.28564453 257.75097656 C-415.55785597 250.98053252 -412.92628681 244.18406203 -410.3807373 237.34381104 C-407.43569978 229.44938945 -404.35681763 221.60767675 -401.28326416 213.76260376 C-399.50132165 209.21385579 -397.72314662 204.66363624 -395.9453125 200.11328125 C-395.42256241 198.7754081 -395.42256241 198.7754081 -394.88925171 197.4105072 C-392.27702377 190.72035716 -389.6916026 184.02029056 -387.125 177.3125 C-381.71929887 163.19702137 -376.19478692 149.12791293 -370.68212891 135.05395508 C-370.31553162 134.1171843 -369.94893433 133.18041351 -369.57122803 132.21525574 C-368.83593787 130.34063495 -368.0978759 128.46709891 -367.35699463 126.59468079 C-365.38716245 121.60554451 -363.47971498 116.60203822 -361.64892578 111.56005859 C-361.25838516 110.50638596 -360.86784454 109.45271332 -360.46546936 108.36711121 C-359.71714973 106.34474523 -358.98532296 104.31617516 -358.27268982 102.28096008 C-355.74819675 95.53386452 -355.74819675 95.53386452 -352.16625977 92.97802734 C-348.79332908 91.93616133 -345.45177733 90.93627671 -342.0234375 90.08984375 C-341.35349762 89.92166641 -340.68355774 89.75348907 -339.99331665 89.58021545 C-338.54637612 89.21725428 -337.09870574 88.8571926 -335.65039062 88.49975586 C-331.70803495 87.52558793 -327.77191215 86.52693368 -323.8359375 85.52734375 C-323.02074646 85.32056 -322.20555542 85.11377625 -321.36566162 84.90072632 C-312.87273758 82.7340017 -304.43611989 80.37659305 -296 78 C-284.11996953 74.65832816 -272.21234492 71.47125481 -260.25 68.4375 C-249.11883218 65.61450323 -238.04238955 62.65250747 -227 59.5 C-216.05975028 56.37838298 -205.08828985 53.42960364 -194.0625 50.625 C-181.28992126 47.37377212 -168.54124265 44.04410423 -155.8125 40.625 C-154.95644165 40.39509369 -154.1003833 40.16518738 -153.21838379 39.92831421 C-139.56826228 36.25849432 -125.93994132 32.51158469 -112.31552124 28.74768066 C-100.10590744 25.37697516 -87.8771219 22.08773541 -75.625 18.875 C-74.84505676 18.67048218 -74.06511353 18.46596436 -73.26153564 18.25524902 C-69.38155626 17.23839903 -65.50118188 16.22306508 -61.62060547 15.20849609 C-53.97422217 13.20913349 -46.32989249 11.20206143 -38.6875 9.1875 C-37.97470886 9.0000119 -37.26191772 8.8125238 -36.52752686 8.61935425 C-27.32621497 6.19673405 -18.1762471 3.6666796 -9.109375 0.77734375 C-5.94778263 -0.01305434 -3.24463716 -0.15239962 0 0 Z " fill="#000000" transform="translate(721,64)"/>
</svg>
