<svg xmlns="http://www.w3.org/2000/svg" width="1126" height="1126">
  <path d="M721 64c-1.401 7.56-3.957 14.242-6.938 21.313a5849.486 5849.486 0 0 0-3.75 9.059c-2.777 6.716-5.422 13.483-8.062 20.253-2.957 7.57-5.935 15.124-9.063 22.625a447.606 447.606 0 0 0-6.637 16.958c-6.494 17.483-13.5 34.788-20.474 52.084-3.623 8.99-7.21 17.981-10.578 27.07a1242.383 1242.383 0 0 1-17.31 43.888 449.026 449.026 0 0 0-6.645 16.975c-3.899 10.497-8.072 20.889-12.178 31.305-1.62 4.117-3.229 8.238-4.836 12.36a2785.733 2785.733 0 0 1-10.466 26.423A1649.707 1649.707 0 0 0 594 390a1790.778 1790.778 0 0 1-11.173 28.447c-3.215 8-6.373 16.023-9.514 24.053-3.24 8.276-6.53 16.523-9.949 24.725-3.379 8.148-6.574 16.406-9.364 24.775h38l3-9a672.127 672.127 0 0 1 3.223-8.531l.913-2.378c.973-2.531 1.95-5.061 2.927-7.591l1.02-2.646a2586.902 2586.902 0 0 1 14.272-36.264c3.36-8.348 6.656-16.72 9.957-25.09l.97-2.46a53550.57 53550.57 0 0 0 8.483-21.518c5.587-14.17 11.167-28.344 16.735-42.522a48241.396 48241.396 0 0 1 9.64-24.531 2923.01 2923.01 0 0 1 4.224-10.688c2.4-6.043 4.772-12.086 6.956-18.21l1.04-2.837c.61-1.67 1.197-3.35 1.754-5.039.797-2.148 1.564-3.826 2.886-5.695 5.192-2.253 10.536-3.815 15.988-5.305l2.25-.623c1.568-.434 3.135-.866 4.703-1.296 2.328-.64 4.656-1.283 6.983-1.928a2174.583 2174.583 0 0 1 28.415-7.624c7.478-1.96 14.944-3.968 22.411-5.974l2.526-.678a42406.503 42406.503 0 0 0 24.367-6.552c9.39-2.525 18.78-5.052 28.17-7.583l2.074-.558c17.03-4.591 34.052-9.213 51.038-13.97 11.126-3.116 22.282-6.1 33.458-9.03a1517.5 1517.5 0 0 0 30.554-8.379c11.783-3.355 23.611-6.48 35.487-9.488 13.26-3.36 26.437-6.98 39.589-10.738 7.605-2.159 15.158-4.086 22.987-5.274-.573 5.66-2.097 10.404-4.21 15.668l-.983 2.498c-1.053 2.676-2.118 5.349-3.182 8.022l-2.2 5.578c-1.46 3.705-2.925 7.409-4.394 11.111-2.65 6.68-5.279 13.37-7.906 20.06l-1.32 3.354c-5.498 13.986-10.87 28.021-16.23 42.06-6.608 17.275-13.458 34.444-20.36 51.601-2.811 6.99-5.61 13.978-8.215 21.048a575.613 575.613 0 0 1-6 15.5 560.034 560.034 0 0 0-5.625 14.5c-9.814 26.4-20.18 52.62-30.688 78.75a768.502 768.502 0 0 0-7.274 18.79c-6.323 16.996-12.952 33.875-19.615 50.74a4382.467 4382.467 0 0 0-12.868 32.996 1860.788 1860.788 0 0 1-10.27 26.056c-2.259 5.617-4.41 11.268-6.513 16.945A502.243 502.243 0 0 1 858 620.5a548.101 548.101 0 0 0-5.688 14.688c-3.168 8.536-6.515 17-9.855 25.47A4195.42 4195.42 0 0 0 831.813 688a2056.836 2056.836 0 0 1-11.164 28.36 613.58 613.58 0 0 0-6.15 16.003c-3.036 8.16-6.267 16.246-9.462 24.345-2.485 6.307-4.94 12.62-7.287 18.98-1.972 5.321-4.069 10.574-6.25 15.812a483.607 483.607 0 0 0-7.028 17.87c-3.633 9.793-7.422 19.526-11.18 29.272a4330.932 4330.932 0 0 0-3.632 9.475c-8.862 23.168-17.967 46.244-27.222 69.258a683.127 683.127 0 0 0-6.313 16.25l-.693 1.854c-1.205 3.224-2.406 6.45-3.598 9.678-1.31 3.535-2.633 7.064-3.959 10.593l-1.273 3.467-1.235 3.267-1.09 2.93c-2.01 4.07-3.94 6.083-8.217 7.692l-3.482.867-1.938.497c-1.392.355-2.786.705-4.182 1.048-3.044.75-6.08 1.532-9.118 2.311a2770 2770 0 0 1-4.856 1.241c-8.275 2.112-16.504 4.385-24.732 6.672a2994.383 2994.383 0 0 1-42.127 11.383l-2.366.62c-3.885 1.018-7.77 2.035-11.656 3.05-7.557 1.977-15.113 3.962-22.665 5.955l-2.166.571a1096.272 1096.272 0 0 0-26.891 7.45c-8.093 2.337-16.253 4.402-24.415 6.481-10.78 2.75-21.505 5.677-32.216 8.686a1554.936 1554.936 0 0 1-38.196 10.181c-11.053 2.807-22.037 5.804-33.002 8.938-12.396 3.537-24.858 6.782-37.357 9.937a11194.305 11194.305 0 0 0-6.19 1.568 226.963 226.963 0 0 0-13.53 3.908c-2.69.722-5.211.748-7.975.53.639-3.723 1.682-7.018 3.082-10.523.43-1.087.862-2.173 1.306-3.293l1.425-3.559c1.013-2.551 2.024-5.104 3.035-7.656l.791-1.996c2.5-6.304 4.944-12.63 7.382-18.958 6.584-17.082 13.311-34.107 20.047-51.13 2.875-7.267 5.744-14.536 8.613-21.805l2.825-7.158a38655.241 38655.241 0 0 0 25.33-64.327c3.826-9.739 7.66-19.474 11.497-29.209 3.728-9.46 7.45-18.922 11.167-28.386a28495.327 28495.327 0 0 1 12.701-32.285c2.721-6.907 5.443-13.814 8.169-20.72a12638.35 12638.35 0 0 0 20.817-53.095l1.017-2.605a236191.056 236191.056 0 0 1 5.62-14.408 2779.045 2779.045 0 0 1 17.404-43.592 631.83 631.83 0 0 0 8.104-20.854c2.815-7.577 5.83-15.079 8.799-22.597l1.38-3.5 1.234-3.12c1.451-3.728 2.85-7.477 4.255-11.224l-38-1-1 5c-.822 2.28-1.69 4.543-2.59 6.793l-.787 1.982a1785.65 1785.65 0 0 1-1.681 4.215c-1.5 3.746-2.985 7.498-4.473 11.248l-.907 2.283a1522.002 1522.002 0 0 0-7.5 19.354c-4.207 11.014-8.58 21.957-12.975 32.897a2064.71 2064.71 0 0 0-12.472 31.797 2529.511 2529.511 0 0 1-21.841 55.132 642.052 642.052 0 0 0-8.13 20.916c-3.603 9.7-7.488 19.296-11.283 28.922-1.605 4.08-3.195 8.167-4.782 12.255-1.078 2.766-2.17 5.527-3.263 8.288a552.693 552.693 0 0 0-4.335 11.353c-.7 1.881-1.415 3.757-2.133 5.631a389.371 389.371 0 0 0-2.692 7.24l-1.285 3.303-1.096 2.937c-2.57 3.553-5.721 4.304-9.775 5.454l-2.877.845c-3.416.98-6.842 1.919-10.271 2.85l-3.859 1.057c-3.416.936-6.834 1.867-10.252 2.797-2.835.772-5.67 1.547-8.504 2.321-15.673 4.284-31.356 8.527-47.074 12.644-11.434 2.995-22.81 6.17-34.182 9.392a1286.123 1286.123 0 0 1-27.422 7.427c-41.57 10.842-83.023 22.196-124.422 33.676-15.432 4.277-30.9 8.404-46.387 12.475-4.01 1.055-8.016 2.12-12.02 3.196l-2.706.724c-1.58.422-3.158.848-4.735 1.276-2.862.763-5.312 1.32-8.289 1.32.552-5.125 1.745-9.342 3.734-14.09a4115.53 4115.53 0 0 0 1.643-3.984l.831-2c1.166-2.836 2.27-5.694 3.37-8.555l1.3-3.373 1.372-3.56A8405.58 8405.58 0 0 1 85 881a9560.048 9560.048 0 0 0 15.375-39.438l.724-1.872c1.635-4.23 3.268-8.46 4.901-12.69a12812.54 12812.54 0 0 1 23.063-59.28A18000.391 18000.391 0 0 0 146.523 723c3.145-8.077 6.329-16.137 9.563-24.179 2.904-7.23 5.7-14.491 8.413-21.795 2.83-7.616 5.77-15.192 8.689-22.775l.989-2.572c4.566-11.869 9.176-23.72 13.84-35.551 3.256-8.26 6.472-16.533 9.67-24.814 4.625-11.967 9.273-23.925 13.938-35.875l1.004-2.574c4.008-10.267 8.023-20.531 12.043-30.794l4.703-12.008 1.171-2.99c4.6-11.75 9.18-23.507 13.692-35.291 3.86-10.067 7.779-20.112 11.7-30.156l1.05-2.693c4.28-10.962 8.576-21.919 12.887-32.87 5.944-15.102 11.76-30.252 17.55-45.414a2236.282 2236.282 0 0 1 15.29-38.897 818.108 818.108 0 0 0 7.904-20.407c2.945-7.895 6.024-15.736 9.098-23.581 1.782-4.55 3.56-9.1 5.338-13.65l1.056-2.702c2.612-6.69 5.197-13.39 7.764-20.099 5.406-14.115 10.93-28.184 16.443-42.258l1.11-2.839c.736-1.874 1.474-3.748 2.215-5.62 1.97-4.99 3.877-9.993 5.708-15.035l1.184-3.193c.748-2.022 1.48-4.05 2.192-6.086 2.525-6.747 2.525-6.747 6.107-9.303 3.373-1.042 6.714-2.042 10.143-2.888l2.03-.51c1.447-.363 2.894-.723 4.343-1.08 3.942-.974 7.878-1.973 11.814-2.973l2.47-.626c8.493-2.167 16.93-4.524 25.366-6.901a1432.312 1432.312 0 0 1 35.75-9.563A1157.968 1157.968 0 0 0 494 123.5c10.94-3.122 21.912-6.07 32.938-8.875a3002.944 3002.944 0 0 0 40.844-10.697c13.65-3.67 27.278-7.416 40.902-11.18a2941.673 2941.673 0 0 1 39.054-10.493c3.88-1.017 7.76-2.032 11.641-3.047 7.647-1.999 15.291-4.006 22.933-6.02l2.16-.569c9.202-2.422 18.352-4.952 27.419-7.842 3.161-.79 5.864-.93 9.109-.777Z"/>
</svg>
